<?xml version="1.0" encoding="UTF-8" standalone="no"?>
<!-- Created with Inkscape (http://www.inkscape.org/) -->

<svg
   width="17.850384mm"
   height="17.850386mm"
   viewBox="0 0 17.850384 17.850386"
   version="1.1"
   id="svg1"
   sodipodi:docname="disorder-group2.svg"
   inkscape:version="1.3 (0e150ed6c4, 2023-07-21)"
   xmlns:inkscape="http://www.inkscape.org/namespaces/inkscape"
   xmlns:sodipodi="http://sodipodi.sourceforge.net/DTD/sodipodi-0.dtd"
   xmlns="http://www.w3.org/2000/svg"
   xmlns:svg="http://www.w3.org/2000/svg">
  <sodipodi:namedview
     id="namedview1"
     pagecolor="#ffffff"
     bordercolor="#000000"
     borderopacity="0.25"
     inkscape:showpageshadow="2"
     inkscape:pageopacity="0.0"
     inkscape:pagecheckerboard="0"
     inkscape:deskcolor="#d1d1d1"
     inkscape:document-units="mm"
     showguides="false"
     inkscape:zoom="4.3466324"
     inkscape:cx="63.497433"
     inkscape:cy="13.458695"
     inkscape:window-width="2560"
     inkscape:window-height="1369"
     inkscape:window-x="1912"
     inkscape:window-y="-8"
     inkscape:window-maximized="1"
     inkscape:current-layer="layer1" />
  <defs
     id="defs1" />
  <g
     inkscape:label="Layer 1"
     inkscape:groupmode="layer"
     id="layer1"
     transform="translate(-19.728827,-10.394623)">
    <path
       id="path4-5"
       style="color:#000000;fill:#8f8f8f;fill-opacity:1;stroke:none;stroke-width:0.2;stroke-dasharray:none;stroke-opacity:1"
       d="m 28.684508,10.729386 a 2.6075482,2.6075482 0 0 0 -2.607593,2.607593 2.6075482,2.6075482 0 0 0 1.079004,2.104776 l -2.987415,6.12935 a 2.6075482,2.6075482 0 0 0 -0.778764,-0.11938 2.6075482,2.6075482 0 0 0 -2.607592,2.6076 2.6075482,2.6075482 0 0 0 2.607592,2.60759 2.6075482,2.6075482 0 0 0 2.607593,-2.60759 2.6075482,2.6075482 0 0 0 -0.948262,-2.01125 l 3.013252,-6.18464 a 2.6075482,2.6075482 0 0 0 0.622185,0.08114 2.6075482,2.6075482 0 0 0 0.624251,-0.07648 l 3.01377,6.18308 a 2.6075482,2.6075482 0 0 0 -0.950847,2.00815 2.6075482,2.6075482 0 0 0 2.607593,2.60759 2.6075482,2.6075482 0 0 0 2.607593,-2.60759 2.6075482,2.6075482 0 0 0 -2.607593,-2.6076 2.6075482,2.6075482 0 0 0 -0.777214,0.12196 l -2.985347,-6.12727 A 2.6075482,2.6075482 0 0 0 31.2921,13.336979 2.6075482,2.6075482 0 0 0 28.684508,10.729386 Z" />
    <path
       id="path8-7"
       style="fill:#000000;fill-opacity:1;stroke:none;stroke-width:0;stroke-dashoffset:0.0831496"
       d="m 23.328762,11.972721 a 2.6075482,2.6075482 0 0 0 -2.607592,2.607594 2.6075482,2.6075482 0 0 0 2.607592,2.60759 2.6075482,2.6075482 0 0 0 0.70435,-0.0987 l 1.051099,2.16473 0.556038,-1.14205 -0.720886,-1.4733 a 2.6075482,2.6075482 0 0 0 1.016992,-2.05827 2.6075482,2.6075482 0 0 0 -2.607593,-2.607594 z" />
    <path
       id="path8-0-5"
       style="fill:#000000;fill-opacity:1;stroke:none;stroke-width:0;stroke-dashoffset:0.0831496"
       d="m 33.918297,11.972721 a 2.6075482,2.6075482 0 0 0 -2.607593,2.607594 2.6075482,2.6075482 0 0 0 1.0604,2.09083 l -0.673344,1.37666 0.556039,1.14205 1.014408,-2.08876 a 2.6075482,2.6075482 0 0 0 0.65009,0.08681 2.6075482,2.6075482 0 0 0 2.607593,-2.60759 2.6075482,2.6075482 0 0 0 -2.607593,-2.607594 z" />
    <path
       id="path9-8"
       style="fill:#000000;fill-opacity:1;stroke:none;stroke-width:0;stroke-dashoffset:0.0831496"
       d="m 30.92003,19.636335 -1.539441,3.15433 a 2.6075482,2.6075482 0 0 0 -0.696081,-0.0956 2.6075482,2.6075482 0 0 0 -0.750342,0.1142 l -1.51412,-3.10265 -0.557071,1.13998 1.187007,2.43345 a 2.6075482,2.6075482 0 0 0 -0.973067,2.02261 2.6075482,2.6075482 0 0 0 2.607593,2.60759 2.6075482,2.6075482 0 0 0 2.607592,-2.60759 2.6075482,2.6075482 0 0 0 -1.015958,-2.06447 l 1.20096,-2.46187 z" />
  </g>
</svg>
