<?xml version="1.0" encoding="UTF-8" standalone="no"?>
<!-- Created with Inkscape (http://www.inkscape.org/) -->

<svg
   width="17.850384mm"
   height="17.850386mm"
   viewBox="0 0 17.850384 17.850386"
   version="1.1"
   id="svg1"
   sodipodi:docname="symmetry-cell-fragment.svg"
   inkscape:version="1.3 (0e150ed6c4, 2023-07-21)"
   xmlns:inkscape="http://www.inkscape.org/namespaces/inkscape"
   xmlns:sodipodi="http://sodipodi.sourceforge.net/DTD/sodipodi-0.dtd"
   xmlns="http://www.w3.org/2000/svg"
   xmlns:svg="http://www.w3.org/2000/svg">
  <sodipodi:namedview
     id="namedview1"
     pagecolor="#ffffff"
     bordercolor="#000000"
     borderopacity="0.25"
     inkscape:showpageshadow="2"
     inkscape:pageopacity="0.0"
     inkscape:pagecheckerboard="0"
     inkscape:deskcolor="#d1d1d1"
     inkscape:document-units="mm"
     showguides="false"
     inkscape:zoom="3.0735332"
     inkscape:cx="-146.73666"
     inkscape:cy="28.794223"
     inkscape:window-width="2560"
     inkscape:window-height="1369"
     inkscape:window-x="1912"
     inkscape:window-y="-8"
     inkscape:window-maximized="1"
     inkscape:current-layer="layer1" />
  <defs
     id="defs1" />
  <g
     inkscape:label="Layer 1"
     inkscape:groupmode="layer"
     id="layer1"
     transform="translate(-19.728827,-10.394623)">
    <path
       id="path4-5"
       style="color:#000000;fill:#000000;fill-opacity:1;stroke:none;stroke-width:0.2;stroke-dasharray:none;stroke-opacity:1"
       d="m 28.654018,14.073019 a 1.8049188,1.8049188 0 0 0 -1.804949,1.80495 1.8049188,1.8049188 0 0 0 0.746876,1.456905 l -2.06786,4.242674 a 1.8049188,1.8049188 0 0 0 -0.539052,-0.08263 1.8049188,1.8049188 0 0 0 -1.804949,1.804955 1.8049188,1.8049188 0 0 0 1.804949,1.804948 1.8049188,1.8049188 0 0 0 1.80495,-1.804948 1.8049188,1.8049188 0 0 0 -0.656378,-1.392167 l 2.085743,-4.280946 a 1.8049188,1.8049188 0 0 0 0.43067,0.05617 1.8049188,1.8049188 0 0 0 0.432101,-0.05294 l 2.086101,4.279867 a 1.8049188,1.8049188 0 0 0 -0.658167,1.390021 1.8049188,1.8049188 0 0 0 1.80495,1.804948 1.8049188,1.8049188 0 0 0 1.80495,-1.804948 1.8049188,1.8049188 0 0 0 -1.80495,-1.804955 1.8049188,1.8049188 0 0 0 -0.53798,0.08442 l -2.066427,-4.24125 a 1.8049188,1.8049188 0 0 0 0.744372,-1.460131 1.8049188,1.8049188 0 0 0 -1.80495,-1.80495 z" />
    <path
       style="fill:none;fill-opacity:1;stroke:#8f8f8f;stroke-width:0.885;stroke-dasharray:none;stroke-dashoffset:0;stroke-opacity:1"
       d="m 23.00627,12.221089 5.667627,-0.01522 -0.0024,14.228985 h -5.665232"
       id="path5"
       sodipodi:nodetypes="cccc" />
    <path
       style="fill:none;fill-opacity:1;stroke:#8f8f8f;stroke-width:0.885;stroke-dasharray:0.885, 0.4425;stroke-dashoffset:0;stroke-opacity:1"
       d="m 37.066846,26.434854 h -7.9624"
       id="path6-6" />
    <path
       style="fill:none;fill-opacity:1;stroke:#8f8f8f;stroke-width:0.885;stroke-dasharray:0.885, 0.4425;stroke-dashoffset:0;stroke-opacity:1"
       d="m 37.066846,12.204679 h -7.9624"
       id="path6-6-6" />
    <path
       style="fill:none;fill-opacity:1;stroke:#8f8f8f;stroke-width:0.885002;stroke-dasharray:0.885002, 0.4425;stroke-dashoffset:0;stroke-opacity:1"
       d="m 20.351046,12.20468 h 2.652477"
       id="path6-1" />
    <path
       style="fill:none;fill-opacity:1;stroke:#8f8f8f;stroke-width:0.885002;stroke-dasharray:0.885002, 0.4425;stroke-dashoffset:0;stroke-opacity:1"
       d="m 20.351046,26.434853 h 2.652477"
       id="path6-1-4" />
  </g>
</svg>
